<?xml version="1.0" standalone="no"?>
<!DOCTYPE svg PUBLIC "-//W3C//DTD SVG 20010904//EN"
 "http://www.w3.org/TR/2001/REC-SVG-20010904/DTD/svg10.dtd">
<svg version="1.0" xmlns="http://www.w3.org/2000/svg"
 viewBox="0 0 2600.000000 2600.000000"
 preserveAspectRatio="xMidYMid meet">
<metadata>
Created by potrace 1.15, written by Peter Selinger 2001-2017
</metadata>
<g transform="translate(0.000000,2600.000000) scale(0.100000,-0.100000)"
fill="#000000" stroke="none">
<path d="M12889 23650 c-305 -23 -595 -119 -884 -293 -330 -199 -686 -548
-977 -957 -547 -771 -1020 -1899 -1377 -3289 -33 -128 -62 -235 -64 -237 -1
-2 -91 21 -198 52 -2396 680 -4193 655 -5157 -71 -393 -295 -636 -680 -738
-1170 -26 -122 -28 -146 -28 -395 -1 -295 11 -393 78 -660 261 -1033 1082
-2245 2395 -3533 l203 -199 -344 -346 c-434 -439 -679 -709 -982 -1085 -671
-833 -1105 -1623 -1275 -2317 -64 -261 -75 -360 -75 -640 -1 -277 11 -375 69
-575 206 -709 783 -1209 1637 -1419 1030 -254 2465 -132 4186 354 117 33 217
60 221 60 5 0 23 -57 40 -127 336 -1342 783 -2461 1297 -3244 183 -278 348
-484 563 -700 280 -280 543 -461 848 -582 227 -91 402 -127 653 -134 326 -10
587 48 895 197 841 407 1573 1449 2146 3057 133 373 288 886 399 1326 29 114
57 207 61 207 5 0 89 -23 186 -51 931 -264 1799 -425 2583 -479 234 -17 734
-14 945 5 1001 88 1693 421 2080 1000 154 231 244 452 298 735 19 100 22 149
21 370 0 220 -3 273 -23 390 -132 772 -558 1602 -1306 2540 -307 386 -570 677
-1024 1132 l-315 317 355 358 c462 467 691 720 1006 1115 999 1253 1446 2388
1289 3275 -126 707 -575 1231 -1300 1518 -1022 403 -2640 319 -4605 -239 -107
-31 -196 -54 -197 -53 -2 1 -21 76 -44 167 -237 944 -524 1759 -864 2456 -733
1497 -1650 2239 -2677 2164z m357 -1287 c163 -58 310 -159 474 -323 517 -517
1009 -1526 1384 -2839 87 -304 192 -719 184 -727 -3 -3 -102 -41 -219 -85
-524 -196 -1168 -464 -1669 -694 -140 -65 -281 -129 -312 -143 l-58 -25 -174
81 c-623 293 -1359 603 -1901 803 -93 34 -174 65 -178 69 -8 7 67 320 142 592
472 1709 1146 2929 1795 3249 126 61 210 80 341 75 89 -3 125 -9 191 -33z
m6924 -4218 c633 -68 1030 -278 1139 -603 78 -232 37 -569 -116 -957 -230
-581 -689 -1255 -1362 -2000 -151 -167 -679 -705 -782 -796 l-66 -58 -109 91
c-465 387 -1066 846 -1614 1232 -107 76 -201 143 -209 151 -9 9 -22 106 -41
316 -62 672 -138 1258 -241 1877 -23 134 -39 245 -37 247 5 6 415 121 598 169
739 192 1425 308 2045 346 193 12 620 4 795 -15z m-13400 5 c586 -41 1270
-160 1972 -346 256 -67 576 -158 584 -166 2 -3 -18 -142 -45 -309 -103 -626
-176 -1204 -235 -1857 -14 -145 -26 -265 -28 -266 -2 -1 -79 -56 -173 -121
-517 -360 -1114 -814 -1635 -1244 -74 -61 -139 -111 -144 -111 -16 0 -685 677
-840 850 -589 656 -990 1219 -1253 1755 -171 349 -249 614 -260 881 -7 172 10
271 66 390 140 295 567 489 1196 543 143 12 624 13 795 1z m8789 -1047 c59
-368 146 -1012 139 -1018 -2 -1 -111 63 -243 142 -253 152 -587 344 -842 483
-84 46 -153 86 -153 90 0 8 360 160 680 287 146 57 292 115 325 128 33 13 63
24 66 25 4 0 16 -62 28 -137z m-4743 18 c229 -89 506 -203 748 -306 l39 -17
-109 -60 c-269 -149 -669 -378 -889 -511 -132 -79 -241 -143 -243 -142 -13 11
153 1145 168 1145 3 0 132 -49 286 -109z m2487 -1132 c874 -453 1529 -833
2394 -1389 l131 -85 7 -110 c34 -598 49 -1401 36 -1990 -11 -482 -27 -912 -39
-1059 l-7 -78 -130 -85 c-608 -394 -1216 -756 -1815 -1083 -319 -173 -833
-440 -850 -440 -16 0 -535 269 -855 443 -581 316 -1210 692 -1810 1080 l-130
85 -7 83 c-13 166 -29 595 -38 1060 -13 596 1 1365 36 1979 l6 115 132 85
c769 495 1441 890 2191 1285 436 230 459 242 468 244 4 0 130 -63 280 -140z
m-4368 -3089 c0 -396 -1 -720 -3 -720 -13 0 -636 487 -890 696 l-25 21 109 89
c176 144 420 336 621 489 103 79 188 144 188 144 0 1 0 -323 0 -719z m8823
227 c149 -119 272 -221 272 -226 0 -15 -375 -316 -720 -578 l-185 -140 0 717
0 717 180 -136 c99 -75 303 -234 453 -354z m-10507 -1207 c459 -381 1116 -880
1634 -1240 66 -46 124 -87 129 -91 4 -4 21 -144 36 -311 63 -671 132 -1216
231 -1817 28 -167 47 -307 42 -312 -4 -4 -87 -30 -183 -58 -811 -231 -1477
-365 -2180 -437 -208 -21 -782 -30 -965 -15 -353 29 -605 88 -824 192 -257
122 -401 288 -447 519 -13 67 -16 115 -11 230 8 205 51 386 146 624 253 630
756 1352 1508 2163 116 125 691 703 700 703 2 0 84 -67 184 -150z m11941 -42
c303 -291 678 -694 953 -1023 652 -781 1049 -1470 1176 -2040 30 -132 37 -356
15 -466 -63 -314 -319 -521 -791 -638 -363 -90 -953 -108 -1545 -46 -618 65
-1337 212 -2080 427 -96 27 -178 53 -183 57 -4 4 13 129 37 278 94 562 179
1225 231 1798 14 154 28 298 31 320 5 37 11 44 92 99 490 333 1258 912 1736
1309 70 59 131 107 133 107 3 0 90 -82 195 -182z m-8532 -2345 c266 -158 650
-378 853 -487 48 -26 87 -50 87 -52 0 -14 -1034 -434 -1069 -434 -5 0 -12 19
-15 43 -34 206 -81 527 -110 742 -47 358 -48 367 -39 362 4 -2 136 -81 293
-174z m5040 169 c0 -14 -60 -476 -81 -617 -38 -267 -82 -525 -89 -525 -32 0
-1042 408 -1063 429 -5 5 52 41 125 81 251 138 583 329 838 483 140 86 258
156 263 156 4 1 7 -2 7 -7z m-2411 -1552 c621 -286 1238 -543 1813 -756 110
-40 188 -74 188 -82 0 -19 -95 -392 -157 -617 -288 -1043 -669 -1941 -1071
-2525 -171 -250 -408 -503 -572 -612 -174 -116 -305 -162 -460 -162 -111 0
-193 19 -300 70 -281 133 -587 454 -859 901 -345 568 -652 1314 -916 2228 -53
184 -185 694 -185 716 0 9 35 27 93 48 568 206 1288 504 1897 787 146 67 266
123 267 123 1 1 119 -53 262 -119z"/>
<path d="M12905 14199 c-563 -52 -1033 -472 -1153 -1029 -124 -572 155 -1164
675 -1433 651 -336 1446 -77 1776 578 43 86 89 222 113 335 25 118 26 372 1
490 -70 331 -245 609 -505 805 -254 190 -588 284 -907 254z"/>
</g>
</svg>
